<svg width="111" height="111" viewBox="0 0 111 111" fill="none" xmlns="http://www.w3.org/2000/svg">
<g clip-path="url(#clip0_550_737)">
<path d="M55.5 111C86.1518 111 111 86.1518 111 55.5C111 24.8482 86.1518 0 55.5 0C24.8482 0 0 24.8482 0 55.5C0 86.1518 24.8482 111 55.5 111Z" fill="#F0F0F0"/>
<path d="M53.0874 55.4998H111C111 50.4905 110.333 45.6377 109.088 41.0215H53.0874V55.4998Z" fill="#D80027"/>
<path d="M53.0874 26.5433H102.854C99.457 20.9994 95.113 16.0991 90.0482 12.0649H53.0874V26.5433Z" fill="#D80027"/>
<path d="M55.5 111C68.5618 111 80.5674 106.485 90.0479 98.9346H20.9521C30.4327 106.485 42.4382 111 55.5 111Z" fill="#D80027"/>
<path d="M8.1461 84.4564H102.854C105.582 80.0058 107.697 75.1408 109.088 69.978H1.91211C3.30329 75.1408 5.41858 80.0058 8.1461 84.4564Z" fill="#D80027"/>
<path d="M25.7086 8.66711H30.7663L26.0618 12.0849L27.8588 17.6152L23.1546 14.1974L18.4503 17.6152L20.0025 12.8376C15.8604 16.2879 12.2299 20.3303 9.23815 24.8345H10.8587L7.86409 27.0101C7.39754 27.7884 6.95007 28.579 6.52125 29.3814L7.95124 33.7826L5.28334 31.8442C4.62016 33.2493 4.01356 34.686 3.46832 36.1526L5.04378 41.0019H10.8587L6.15421 44.4197L7.95124 49.95L3.24697 46.5322L0.429041 48.5796C0.146988 50.8469 0 53.1562 0 55.5H55.5C55.5 24.8484 55.5 21.2348 55.5 0C44.5361 0 34.3157 3.18041 25.7086 8.66711ZM27.8588 49.95L23.1546 46.5322L18.4503 49.95L20.2473 44.4197L15.5428 41.0019H21.3577L23.1546 35.4717L24.9514 41.0019H30.7663L26.0618 44.4197L27.8588 49.95ZM26.0618 28.2523L27.8588 33.7826L23.1546 30.3648L18.4503 33.7826L20.2473 28.2523L15.5428 24.8345H21.3577L23.1546 19.3042L24.9514 24.8345H30.7663L26.0618 28.2523ZM47.7664 49.95L43.0621 46.5322L38.3579 49.95L40.1549 44.4197L35.4504 41.0019H41.2653L43.0621 35.4717L44.859 41.0019H50.6739L45.9694 44.4197L47.7664 49.95ZM45.9694 28.2523L47.7664 33.7826L43.0621 30.3648L38.3579 33.7826L40.1549 28.2523L35.4504 24.8345H41.2653L43.0621 19.3042L44.859 24.8345H50.6739L45.9694 28.2523ZM45.9694 12.0849L47.7664 17.6152L43.0621 14.1974L38.3579 17.6152L40.1549 12.0849L35.4504 8.66711H41.2653L43.0621 3.13683L44.859 8.66711H50.6739L45.9694 12.0849Z" fill="#0052B4"/>
</g>
<defs>
<clipPath id="clip0_550_737">
<rect width="111" height="111" fill="white"/>
</clipPath>
</defs>
</svg>
